<mxfile host="app.diagrams.net" modified="2023-09-20T06:34:47.874Z" agent="Mozilla/5.0 (Windows NT 10.0; Win64; x64) AppleWebKit/537.36 (KHTML, like Gecko) Chrome/116.0.0.0 Whale/3.22.205.18 Safari/537.36" version="21.7.5" etag="Odg95VxUJn_dCRynBGJ9" type="github">
  <diagram name="페이지-1" id="A2mZg5_CzM6SbHUTz9Lb">
    <mxGraphModel>
      <root>
        <mxCell id="0" />
        <mxCell id="1" parent="0" />
      </root>
    </mxGraphModel>
  </diagram>
</mxfile>
